{"title":"Blindspot S01 1080p BluRay HEVC DD5.1 x265","uid":15635658,"size":17020158661,"categoryP":"video","categoryS":"hd___tv_shows","magnet":"?xt=urn:btih:5d1e5795fd67fe2a0d360f9bfb6e822a977ce449&amp;dn=Blindspot+S01+1080p+BluRay+HEVC+DD5.1+x265&amp;tr=udp%3A%2F%2Ftracker.leechers-paradise.org%3A6969&amp;tr=udp%3A%2F%2Fzer0day.ch%3A1337&amp;tr=udp%3A%2F%2Fopen.demonii.com%3A1337&amp;tr=udp%3A%2F%2Ftracker.coppersurfer.tk%3A6969&amp;tr=udp%3A%2F%2Fexodus.desync.com%3A6969","seeders":9,"leechers":6,"uploader":"nayhtut","files":46,"time":1471985924,"description":"[Screenshots]\r\n \nhttps://s13.postimg.org/89q8vz1vb/Blindspot_S01_E22_1080p_Blu_Ray_HEVC_DD5_1_x265_00.jpg \nhttps://s13.postimg.org/afkjqh5br/Blindspot_S01_E20_1080p_Blu_Ray_HEVC_DD5_1_x265_00.jpg \nhttps://s13.postimg.org/y7tv207cn/Blindspot_S01_E16_1080p_Blu_Ray_HEVC_DD5_1_x265_00.jpg \nhttps://s13.postimg.org/b7n7po9iv/Blindspot_S01_E14_1080p_Blu_Ray_HEVC_DD5_1_x265_00.jpg \nhttps://s13.postimg.org/vt1zhkr3r/Blindspot_S01_E09_1080p_Blu_Ray_HEVC_DD5_1_x265_00.jpg \nhttps://s13.postimg.org/o1l9j0myf/Blindspot_S01_E07_1080p_Blu_Ray_HEVC_DD5_1_x265_00.jpg \nhttps://s13.postimg.org/gmvxqn12v/Blindspot_S01_E05_1080p_Blu_Ray_HEVC_DD5_1_x265_00.jpg \nhttps://s13.postimg.org/6e81yk2ev/Blindspot_S01_E03_1080p_Blu_Ray_HEVC_DD5_1_x265_00.jpg \nhttps://s13.postimg.org/tgykxq3w7/Blindspot_S01_E01_1080p_Blu_Ray_HEVC_DD5_1_x265_00.jpg\r\n\r\n__--__--__--__--__--__--__--__--__--__--__--__--__--__--__--__--__--__--__--__--\r\n\r\n\r\n** Release Note**\r\n\r\nOriginal Source File &quot;Blindspot.S01E11.1080p.BluRay.x264-MAYHEM&quot; has a problem which has video stream of E12 with audio stream of E11.\r\n\r\nSince it is a major problem, I had replaced the source file used with &quot;Blindspot.S01E11.1080p.WEB-DL.DD5.1.H.264-NTB&quot; for time being. I will upload E11 Bluray re-encode seperately when REPACK or PROPER release is out.\r\n\r\n\r\n__--__--__--__--__--__--__--__--__--__--__--__--__--__--__--__--__--__--__--__--__\r\n\r\n\r\nSource:  Blindspot S01 1080p BluRay x264-MIXED  (Size: 75.6 GB)\r\n\r\n\r\nContains:  Blindspot Season One - Episode 01 to 23\r\n\r\n\r\nFormat                                   : Matroska\r\nFormat version                           : Version 4 / Version 2\r\nFile size                                : 15.85 GiB\r\nDuration                                 : Various\r\nOverall bit rate                         : 2 285 Kbps\r\nWriting application                      : Lavf57.25.100\r\nWriting library                          : Lavf57.25.100\r\n\r\nVideo\r\n\r\nID                                       : 1\r\nFormat                                   : V_MPEGH/ISO/HEVC\r\nCodec ID                                 : V_MPEGH/ISO/HEVC\r\nDuration                                 : 43mn 9s\r\nBit rate                                 : 1 855 Kbps\r\nWidth                                    : 1 920 pixels\r\nHeight                                   : 1 080 pixels\r\nDisplay aspect ratio                     : 16:9\r\nFrame rate                               : 25.000 fps\r\nBits/(Pixel*Frame)                       : 0.036\r\nStream size                              : 573 MiB (81%)\r\nWriting library                          : Lavc57.48.101 libx265\r\nLanguage                                 : English\r\nDefault                                  : Yes\r\nForced                                   : No\r\nDURATION                                 : 00:43:09.571000000\r\nNUMBER_OF_FRAMES                         : 62086\r\nNUMBER_OF_BYTES                          : 3028615924\r\n_STATISTICS_WRITING_APP                  : mkvmerge v8.3.0 ('Over the Horizon') 64bit\r\n_STATISTICS_WRITING_DATE_UTC             : 2016-08-03 02:24:50\r\n_STATISTICS_TAGS                         : BPS DURATION NUMBER_OF_FRAMES NUMBER_OF_BYTES\r\n\r\nAudio\r\n\r\nID                                       : 2\r\nFormat                                   : AC-3\r\nFormat/Info                              : Audio Coding 3\r\nMode extension                           : CM (complete main)\r\nFormat settings, Endianness              : Big\r\nCodec ID                                 : A_AC3\r\nDuration                                 : 43mn 9s\r\nBit rate mode                            : Constant\r\nBit rate                                 : 384 Kbps\r\nChannel(s)                               : 6 channels\r\nChannel positions                        : Front: L C R, Side: L R, LFE\r\nSampling rate                            : 48.0 KHz\r\nBit depth                                : 16 bits\r\nCompression mode                         : Lossy\r\nStream size                              : 119 MiB (17%)\r\nWriting library                          : Lavc57.24.102 ac3\r\nLanguage                                 : English\r\nDefault                                  : Yes\r\nForced                                   : No\r\nDURATION                                 : 00:43:09.631000000\r\nNUMBER_OF_FRAMES                         : 242770\r\nNUMBER_OF_BYTES                          : 488453240\r\n_STATISTICS_WRITING_APP                  : mkvmerge v8.3.0 ('Over the Horizon') 64bit\r\n_STATISTICS_WRITING_DATE_UTC             : 2016-08-03 02:24:50\r\n_STATISTICS_TAGS                         : BPS DURATION NUMBER_OF_FRAMES NUMBER_OF_BYTES\r\n\r\nMenu\r\n\r\n00:00:00.000                             : :00:00:00.000\r\n00:06:46.156                             : :00:06:46.156\r\n00:15:01.984                             : :00:15:01.984\r\n00:25:53.385                             : :00:25:53.385\r\n00:32:39.124                             : :00:32:39.124\r\n00:37:28.079                             : :00:37:28.079\r\n00:42:31.132                             : :00:42:31.132\r\n\r\n__--__--__--__--__--__--__--__--__--__--__--__--__--\r\n\r\n\r\nIMDb: http://www.imdb.com/title/tt4474344\r\n\r\n\r\n__--__--__--__--__--__--__--__--__--__--__--__--__--\r\n\r\n\r\nAfter adding torrent with magnet link,\r\n\r\nplease add this  following trackers list to the torrent for better seeds.\r\n\r\n\r\nudp://tracker.coppersurfer.tk:6969/announce\r\n\r\nudp://tracker.opentrackr.org:1337/announce\r\n \nhttp://tracker.baravik.org:6970/announce\r\n \nhttp://tracker2.wasabii.com.tw:6969/announce\r\n\r\nudp://9.rarbg.me:2710/announce\r\n\r\n\r\n__--__--__--__--__--__--__--__--__--__--__--__--__--\r\n\r\nEnjoy!","torrent":{"xt":"urn:btih:5d1e5795fd67fe2a0d360f9bfb6e822a977ce449","amp;dn":"Blindspot+S01+1080p+BluRay+HEVC+DD5.1+x265","amp;tr":["udp%3A%2F%2Ftracker.leechers-paradise.org%3A6969","udp%3A%2F%2Fzer0day.ch%3A1337","udp%3A%2F%2Fopen.demonii.com%3A1337","udp%3A%2F%2Ftracker.coppersurfer.tk%3A6969","udp%3A%2F%2Fexodus.desync.com%3A6969"],"infoHash":"5d1e5795fd67fe2a0d360f9bfb6e822a977ce449","infoHashBuffer":{"type":"Buffer","data":[93,30,87,149,253,103,254,42,13,54,15,155,251,110,130,42,151,124,228,73]},"announce":[],"urlList":[]}}